<svg width="153" height="39" viewBox="0 0 153 39" fill="none" xmlns="http://www.w3.org/2000/svg">
<path d="M58.3965 29.5625V25.2875H49.362V22.067H58.197V17.792H49.362V14.828H58.3965V10.553H44.46V29.5625H58.3965ZM69.3367 29.5625L74.7517 15.797H70.1062L66.9712 24.518L63.8647 15.797H59.2477L64.6627 29.5625H69.3367ZM82.6865 29.9045C84.7955 29.9045 87.0755 29.306 88.4435 28.0805L86.591 25.3445C85.8215 26.0855 84.14 26.513 83.171 26.513C81.176 26.513 79.979 25.3445 79.7225 24.062H89.5265V23.1215C89.5265 18.4475 86.5625 15.455 82.487 15.455C78.1835 15.455 75.1625 18.6755 75.1625 22.6655C75.1625 27.14 78.44 29.9045 82.6865 29.9045ZM85.337 21.212H79.6655C79.8365 20.2145 80.5775 18.8465 82.487 18.8465C84.5105 18.8465 85.223 20.243 85.337 21.212ZM105.397 29.5625V19.8155C105.397 17.279 103.972 15.455 100.837 15.455C98.5283 15.455 96.9038 16.5095 96.0773 17.4785V15.797H91.6883V29.5625H96.0773V20.6705C96.5903 20.0435 97.4453 19.331 98.7563 19.331C100.124 19.331 101.008 19.9295 101.008 21.611V29.5625H105.397ZM113.798 29.9045C115.422 29.9045 116.505 29.5055 117.047 28.9925L116.192 25.6865C116.049 25.8575 115.565 26.0285 115.08 26.0285C114.311 26.0285 113.855 25.43 113.855 24.632V19.616H116.648V15.797H113.855V12.035H109.494V15.797H107.214V19.616H109.494V25.8575C109.494 28.508 111.005 29.9045 113.798 29.9045ZM120.448 13.8305C121.246 13.8305 121.902 13.2035 121.902 12.4055C121.902 11.6075 121.246 10.952 120.448 10.952C119.679 10.952 119.023 11.6075 119.023 12.4055C119.023 13.2035 119.679 13.8305 120.448 13.8305ZM121.531 29.5625V15.797H119.394V29.5625H121.531ZM131.866 29.9045C134.374 29.9045 135.856 28.8785 136.91 27.5105L135.485 26.1995C134.573 27.425 133.405 27.995 131.98 27.995C129.044 27.995 127.22 25.715 127.22 22.6655C127.22 19.616 129.044 17.3645 131.98 17.3645C133.405 17.3645 134.573 17.906 135.485 19.16L136.91 17.849C135.856 16.481 134.374 15.455 131.866 15.455C127.762 15.455 124.997 18.59 124.997 22.6655C124.997 26.7695 127.762 29.9045 131.866 29.9045ZM152.019 29.5625L145.891 22.0385L151.99 15.797H149.283L142.044 23.1215V10.553H139.906V29.5625H142.044V25.6295L144.324 23.378L149.283 29.5625H152.019Z" fill="white"/>
<path d="M24.6697 7.11704C24.6697 7.13139 24.6697 7.13139 24.6697 7.14574C24.311 7.13139 23.9522 7.11704 23.5648 7.11704H12.5161L14.0514 5.59605C15.4576 4.17551 17.0073 2.86975 18.801 2.86975C20.6089 2.86975 22.1586 4.17551 23.5648 5.59605L24.3683 6.39959C24.5692 6.58613 24.6697 6.84441 24.6697 7.11704Z" fill="white"/>
<path d="M29.9045 18.8965C30.4641 18.8965 30.9089 18.4373 30.9089 17.8634V16.6007C30.9089 10.9616 29.1871 9.25403 23.5623 9.25403H14.5224H10.8779C5.25306 9.25403 3.53119 10.9759 3.53119 16.6007V17.2177C3.53119 17.7916 3.97601 18.2364 4.53562 18.2364C5.74093 18.2364 6.70231 19.2122 6.70231 20.4031C6.70231 21.5941 5.74093 22.5842 4.53562 22.5842C3.97601 22.5842 3.53119 23.029 3.53119 23.603V24.22C3.53119 29.8591 5.25306 31.5666 10.8779 31.5666H14.5081H23.5479C29.1727 31.5666 30.8946 29.8448 30.8946 24.22C30.8946 23.6604 30.4498 23.2012 29.8902 23.2012C28.6849 23.2012 27.7235 22.2398 27.7235 21.0488C27.7378 19.8579 28.6992 18.8965 29.9045 18.8965ZM15.5269 27.0611C15.5269 27.6207 15.0677 28.0798 14.5081 28.0798C13.9485 28.0798 13.4894 27.6207 13.4894 27.0611V23.2155C13.4894 22.6559 13.9485 22.1968 14.5081 22.1968C15.0677 22.1968 15.5269 22.6559 15.5269 23.2155V27.0611ZM15.5269 17.6051C15.5269 18.1647 15.0677 18.6239 14.5081 18.6239C13.9485 18.6239 13.4894 18.1647 13.4894 17.6051V13.7596C13.4894 13.2 13.9485 12.7408 14.5081 12.7408C15.0677 12.7408 15.5269 13.2 15.5269 13.7596V17.6051Z" fill="white"/>
</svg>
